<mxfile host="app.diagrams.net" agent="Mozilla/5.0 (Windows NT 10.0; Win64; x64) AppleWebKit/537.36 (KHTML, like Gecko) Chrome/129.0.0.0 Safari/537.36" version="27.1.4">
  <diagram id="gwUhwwIQdEspnQJv_WbK" name="Pagina-1">
    <mxGraphModel dx="1699" dy="1652" grid="1" gridSize="10" guides="1" tooltips="1" connect="1" arrows="1" fold="1" page="1" pageScale="1" pageWidth="827" pageHeight="1169" math="0" shadow="0">
      <root>
        <mxCell id="0" />
        <mxCell id="1" parent="0" />
        <mxCell id="FgpJdpsvdST_ZWDqFQEa-1" value="Utente" style="shape=umlActor;verticalLabelPosition=bottom;verticalAlign=top;html=1;outlineConnect=0;" parent="1" vertex="1">
          <mxGeometry x="-351.25" y="-150" width="30" height="60" as="geometry" />
        </mxCell>
        <mxCell id="FgpJdpsvdST_ZWDqFQEa-4" value="" style="endArrow=none;dashed=1;html=1;rounded=0;" parent="1" source="WTWF-vKirUXl5wXtsg50-43" target="FgpJdpsvdST_ZWDqFQEa-1" edge="1">
          <mxGeometry width="50" height="50" relative="1" as="geometry">
            <mxPoint x="-336.25" y="611" as="sourcePoint" />
            <mxPoint x="-321.25" y="191" as="targetPoint" />
            <Array as="points" />
          </mxGeometry>
        </mxCell>
        <mxCell id="FgpJdpsvdST_ZWDqFQEa-5" value="controller get candidature" style="rounded=0;whiteSpace=wrap;html=1;" parent="1" vertex="1">
          <mxGeometry x="260" y="-140" width="120" height="60" as="geometry" />
        </mxCell>
        <mxCell id="FgpJdpsvdST_ZWDqFQEa-6" value="" style="endArrow=none;dashed=1;html=1;rounded=0;" parent="1" source="WTWF-vKirUXl5wXtsg50-3" target="FgpJdpsvdST_ZWDqFQEa-5" edge="1">
          <mxGeometry width="50" height="50" relative="1" as="geometry">
            <mxPoint x="320" y="630" as="sourcePoint" />
            <mxPoint x="319.5" y="80" as="targetPoint" />
          </mxGeometry>
        </mxCell>
        <mxCell id="FgpJdpsvdST_ZWDqFQEa-7" value=":offerte" style="rounded=0;whiteSpace=wrap;html=1;" parent="1" vertex="1">
          <mxGeometry x="540" y="-140" width="120" height="60" as="geometry" />
        </mxCell>
        <mxCell id="FgpJdpsvdST_ZWDqFQEa-10" value="" style="endArrow=none;dashed=1;html=1;rounded=0;entryX=0.5;entryY=1;entryDx=0;entryDy=0;" parent="1" source="WTWF-vKirUXl5wXtsg50-8" target="FgpJdpsvdST_ZWDqFQEa-7" edge="1">
          <mxGeometry width="50" height="50" relative="1" as="geometry">
            <mxPoint x="599.5" y="320" as="sourcePoint" />
            <mxPoint x="599.5" y="70" as="targetPoint" />
          </mxGeometry>
        </mxCell>
        <mxCell id="WTWF-vKirUXl5wXtsg50-1" value="" style="endArrow=classic;html=1;rounded=0;" parent="1" edge="1">
          <mxGeometry width="50" height="50" relative="1" as="geometry">
            <mxPoint x="50" y="-27.5" as="sourcePoint" />
            <mxPoint x="310" y="-27.5" as="targetPoint" />
          </mxGeometry>
        </mxCell>
        <mxCell id="WTWF-vKirUXl5wXtsg50-2" value="Richiesta GET&amp;nbsp;" style="text;html=1;align=center;verticalAlign=middle;whiteSpace=wrap;rounded=0;" parent="1" vertex="1">
          <mxGeometry x="110" y="-58.5" width="140" height="30" as="geometry" />
        </mxCell>
        <mxCell id="WTWF-vKirUXl5wXtsg50-4" value="" style="endArrow=classic;html=1;rounded=0;" parent="1" edge="1">
          <mxGeometry width="50" height="50" relative="1" as="geometry">
            <mxPoint x="350" y="150" as="sourcePoint" />
            <mxPoint x="550" y="150" as="targetPoint" />
          </mxGeometry>
        </mxCell>
        <mxCell id="WTWF-vKirUXl5wXtsg50-5" value="new Candidature()" style="text;html=1;align=center;verticalAlign=middle;whiteSpace=wrap;rounded=0;" parent="1" vertex="1">
          <mxGeometry x="380" y="120" width="140" height="30" as="geometry" />
        </mxCell>
        <mxCell id="WTWF-vKirUXl5wXtsg50-7" value="0" style="text;html=1;align=center;verticalAlign=middle;whiteSpace=wrap;rounded=0;" parent="1" vertex="1">
          <mxGeometry x="380" y="176" width="140" height="30" as="geometry" />
        </mxCell>
        <mxCell id="WTWF-vKirUXl5wXtsg50-9" value="" style="endArrow=none;dashed=1;html=1;rounded=0;" parent="1" target="WTWF-vKirUXl5wXtsg50-8" edge="1">
          <mxGeometry width="50" height="50" relative="1" as="geometry">
            <mxPoint x="600" y="390" as="sourcePoint" />
            <mxPoint x="599.5" y="70" as="targetPoint" />
          </mxGeometry>
        </mxCell>
        <mxCell id="WTWF-vKirUXl5wXtsg50-8" value="" style="rounded=0;whiteSpace=wrap;html=1;rotation=90;" parent="1" vertex="1">
          <mxGeometry x="572.5" y="156" width="55" height="20" as="geometry" />
        </mxCell>
        <mxCell id="WTWF-vKirUXl5wXtsg50-12" value="" style="endArrow=classic;html=1;rounded=0;" parent="1" edge="1">
          <mxGeometry width="50" height="50" relative="1" as="geometry">
            <mxPoint x="350" y="241" as="sourcePoint" />
            <mxPoint x="550" y="241" as="targetPoint" />
          </mxGeometry>
        </mxCell>
        <mxCell id="WTWF-vKirUXl5wXtsg50-13" value="connectToDatabase()" style="text;html=1;align=center;verticalAlign=middle;whiteSpace=wrap;rounded=0;" parent="1" vertex="1">
          <mxGeometry x="380" y="211" width="140" height="30" as="geometry" />
        </mxCell>
        <mxCell id="WTWF-vKirUXl5wXtsg50-15" value="0" style="text;html=1;align=center;verticalAlign=middle;whiteSpace=wrap;rounded=0;" parent="1" vertex="1">
          <mxGeometry x="380" y="267" width="140" height="30" as="geometry" />
        </mxCell>
        <mxCell id="WTWF-vKirUXl5wXtsg50-16" value="" style="rounded=0;whiteSpace=wrap;html=1;rotation=90;" parent="1" vertex="1">
          <mxGeometry x="572.5" y="241" width="55" height="20" as="geometry" />
        </mxCell>
        <mxCell id="WTWF-vKirUXl5wXtsg50-17" value="" style="endArrow=classic;html=1;rounded=0;" parent="1" edge="1">
          <mxGeometry width="50" height="50" relative="1" as="geometry">
            <mxPoint x="350" y="327" as="sourcePoint" />
            <mxPoint x="550" y="327" as="targetPoint" />
          </mxGeometry>
        </mxCell>
        <mxCell id="WTWF-vKirUXl5wXtsg50-18" value="getCandidatureByUtenteId(utenteId)" style="text;html=1;align=center;verticalAlign=middle;whiteSpace=wrap;rounded=0;" parent="1" vertex="1">
          <mxGeometry x="380" y="297" width="140" height="30" as="geometry" />
        </mxCell>
        <mxCell id="WTWF-vKirUXl5wXtsg50-20" value="dati delle candidature" style="text;html=1;align=center;verticalAlign=middle;whiteSpace=wrap;rounded=0;" parent="1" vertex="1">
          <mxGeometry x="380" y="353" width="140" height="30" as="geometry" />
        </mxCell>
        <mxCell id="WTWF-vKirUXl5wXtsg50-21" value="" style="rounded=0;whiteSpace=wrap;html=1;rotation=90;" parent="1" vertex="1">
          <mxGeometry x="572.5" y="327" width="55" height="20" as="geometry" />
        </mxCell>
        <mxCell id="WTWF-vKirUXl5wXtsg50-36" value="pagina HTML" style="rounded=0;whiteSpace=wrap;html=1;" parent="1" vertex="1">
          <mxGeometry x="-30" y="-140" width="120" height="60" as="geometry" />
        </mxCell>
        <mxCell id="WTWF-vKirUXl5wXtsg50-37" value="" style="endArrow=none;dashed=1;html=1;rounded=0;entryX=0.5;entryY=1;entryDx=0;entryDy=0;" parent="1" target="WTWF-vKirUXl5wXtsg50-36" edge="1">
          <mxGeometry width="50" height="50" relative="1" as="geometry">
            <mxPoint x="30" y="460" as="sourcePoint" />
            <mxPoint x="29.5" y="80" as="targetPoint" />
          </mxGeometry>
        </mxCell>
        <mxCell id="WTWF-vKirUXl5wXtsg50-42" value="200 dati delle candidature in json" style="text;html=1;align=center;verticalAlign=middle;whiteSpace=wrap;rounded=0;" parent="1" vertex="1">
          <mxGeometry x="113.13" y="389" width="130" height="30" as="geometry" />
        </mxCell>
        <mxCell id="WTWF-vKirUXl5wXtsg50-44" value="" style="endArrow=none;dashed=1;html=1;rounded=0;" parent="1" target="WTWF-vKirUXl5wXtsg50-43" edge="1">
          <mxGeometry width="50" height="50" relative="1" as="geometry">
            <mxPoint x="-336" y="460" as="sourcePoint" />
            <mxPoint x="-336.25" y="81" as="targetPoint" />
            <Array as="points">
              <mxPoint x="-336.25" y="151" />
            </Array>
          </mxGeometry>
        </mxCell>
        <mxCell id="WTWF-vKirUXl5wXtsg50-43" value="" style="rounded=0;whiteSpace=wrap;html=1;rotation=90;" parent="1" vertex="1">
          <mxGeometry x="-571.87" y="186.63" width="471.25" height="20" as="geometry" />
        </mxCell>
        <mxCell id="WTWF-vKirUXl5wXtsg50-48" value="" style="endArrow=classic;html=1;rounded=0;" parent="1" edge="1">
          <mxGeometry width="50" height="50" relative="1" as="geometry">
            <mxPoint x="-300" y="-27.5" as="sourcePoint" />
            <mxPoint x="10" y="-27.5" as="targetPoint" />
          </mxGeometry>
        </mxCell>
        <mxCell id="WTWF-vKirUXl5wXtsg50-49" value="accede alla sezione le mie candidature" style="text;html=1;align=center;verticalAlign=middle;whiteSpace=wrap;rounded=0;" parent="1" vertex="1">
          <mxGeometry x="-240" y="-58.5" width="140" height="30" as="geometry" />
        </mxCell>
        <mxCell id="WTWF-vKirUXl5wXtsg50-51" value="dati delle candidature" style="text;html=1;align=center;verticalAlign=middle;whiteSpace=wrap;rounded=0;" parent="1" vertex="1">
          <mxGeometry x="-220" y="388" width="130" height="30" as="geometry" />
        </mxCell>
        <mxCell id="WTWF-vKirUXl5wXtsg50-57" value="" style="rounded=0;whiteSpace=wrap;html=1;rotation=90;" parent="1" vertex="1">
          <mxGeometry x="-217.5" y="177.5" width="495" height="20" as="geometry" />
        </mxCell>
        <mxCell id="WTWF-vKirUXl5wXtsg50-58" value="" style="endArrow=classic;html=1;rounded=0;" parent="1" edge="1">
          <mxGeometry width="50" height="50" relative="1" as="geometry">
            <mxPoint x="340" y="-28.5" as="sourcePoint" />
            <mxPoint x="340" y="21.5" as="targetPoint" />
            <Array as="points">
              <mxPoint x="450" y="-28.5" />
              <mxPoint x="450" y="-8.5" />
              <mxPoint x="450" y="21.5" />
            </Array>
          </mxGeometry>
        </mxCell>
        <mxCell id="WTWF-vKirUXl5wXtsg50-59" value="verifica sessione" style="text;html=1;align=center;verticalAlign=middle;whiteSpace=wrap;rounded=0;" parent="1" vertex="1">
          <mxGeometry x="450" y="-18.5" width="80" height="30" as="geometry" />
        </mxCell>
        <mxCell id="WTWF-vKirUXl5wXtsg50-60" value="" style="endArrow=none;dashed=1;html=1;rounded=0;" parent="1" target="WTWF-vKirUXl5wXtsg50-3" edge="1">
          <mxGeometry width="50" height="50" relative="1" as="geometry">
            <mxPoint x="320" y="470" as="sourcePoint" />
            <mxPoint x="320" y="-80" as="targetPoint" />
          </mxGeometry>
        </mxCell>
        <mxCell id="WTWF-vKirUXl5wXtsg50-3" value="" style="rounded=0;whiteSpace=wrap;html=1;rotation=90;" parent="1" vertex="1">
          <mxGeometry x="73.13" y="180" width="493.75" height="20" as="geometry" />
        </mxCell>
        <mxCell id="DBZImKbF1UQ4x1tNNMny-1" value="" style="html=1;labelBackgroundColor=#ffffff;startArrow=none;startFill=0;startSize=6;endArrow=classic;endFill=1;endSize=6;jettySize=auto;orthogonalLoop=1;strokeWidth=1;dashed=1;fontSize=14;rounded=0;" edge="1" parent="1">
          <mxGeometry width="60" height="60" relative="1" as="geometry">
            <mxPoint x="-30" y="380" as="sourcePoint" />
            <mxPoint x="-300" y="380" as="targetPoint" />
          </mxGeometry>
        </mxCell>
        <mxCell id="DBZImKbF1UQ4x1tNNMny-2" value="" style="html=1;labelBackgroundColor=#ffffff;startArrow=none;startFill=0;startSize=6;endArrow=classic;endFill=1;endSize=6;jettySize=auto;orthogonalLoop=1;strokeWidth=1;dashed=1;fontSize=14;rounded=0;" edge="1" parent="1">
          <mxGeometry width="60" height="60" relative="1" as="geometry">
            <mxPoint x="270" y="380" as="sourcePoint" />
            <mxPoint x="70" y="380" as="targetPoint" />
          </mxGeometry>
        </mxCell>
        <mxCell id="DBZImKbF1UQ4x1tNNMny-3" value="" style="html=1;labelBackgroundColor=#ffffff;startArrow=none;startFill=0;startSize=6;endArrow=classic;endFill=1;endSize=6;jettySize=auto;orthogonalLoop=1;strokeWidth=1;dashed=1;fontSize=14;rounded=0;" edge="1" parent="1">
          <mxGeometry width="60" height="60" relative="1" as="geometry">
            <mxPoint x="550" y="347" as="sourcePoint" />
            <mxPoint x="350" y="347" as="targetPoint" />
          </mxGeometry>
        </mxCell>
        <mxCell id="DBZImKbF1UQ4x1tNNMny-4" value="" style="html=1;labelBackgroundColor=#ffffff;startArrow=none;startFill=0;startSize=6;endArrow=classic;endFill=1;endSize=6;jettySize=auto;orthogonalLoop=1;strokeWidth=1;dashed=1;fontSize=14;rounded=0;" edge="1" parent="1">
          <mxGeometry width="60" height="60" relative="1" as="geometry">
            <mxPoint x="550" y="260" as="sourcePoint" />
            <mxPoint x="350" y="260" as="targetPoint" />
          </mxGeometry>
        </mxCell>
        <mxCell id="DBZImKbF1UQ4x1tNNMny-5" value="" style="html=1;labelBackgroundColor=#ffffff;startArrow=none;startFill=0;startSize=6;endArrow=classic;endFill=1;endSize=6;jettySize=auto;orthogonalLoop=1;strokeWidth=1;dashed=1;fontSize=14;rounded=0;" edge="1" parent="1">
          <mxGeometry width="60" height="60" relative="1" as="geometry">
            <mxPoint x="550" y="175" as="sourcePoint" />
            <mxPoint x="350" y="175" as="targetPoint" />
          </mxGeometry>
        </mxCell>
      </root>
    </mxGraphModel>
  </diagram>
</mxfile>
